<?xml version="1.0" standalone="no"?>
<!DOCTYPE svg PUBLIC "-//W3C//DTD SVG 20010904//EN"
 "http://www.w3.org/TR/2001/REC-SVG-20010904/DTD/svg10.dtd">
<svg version="1.0" xmlns="http://www.w3.org/2000/svg"
 width="1080.000000pt" height="1080.000000pt" viewBox="0 0 1080.000000 1080.000000"
 preserveAspectRatio="xMidYMid meet">

<g transform="translate(0.000000,1080.000000) scale(0.100000,-0.100000)"
fill="#000000" stroke="none">
<path d="M5309 8664 c-60 -18 -131 -81 -159 -141 -34 -72 -32 -173 4 -247 15
-31 42 -67 60 -81 111 -85 274 -93 374 -18 38 28 39 39 11 69 l-21 22 -56 -30
c-49 -26 -65 -29 -118 -26 -93 6 -152 51 -178 136 l-7 22 220 0 221 0 0 53 c0
106 -79 211 -181 241 -64 19 -109 19 -170 0z m171 -88 c38 -17 75 -65 85 -108
l7 -28 -177 0 -176 0 7 23 c36 119 143 167 254 113z"/>
<path d="M5792 8397 c-23 -134 -42 -253 -42 -264 0 -21 24 -33 67 -33 24 0 21
-10 53 174 12 65 26 130 31 145 25 65 105 110 175 97 31 -6 32 -5 39 33 4 22
3 45 -1 52 -10 17 -104 5 -153 -20 l-41 -21 0 34 c0 36 -12 46 -59 46 l-28 0
-41 -243z"/>
<path d="M4725 8611 c-56 -14 -106 -43 -140 -84 l-35 -40 -6 32 c-8 39 -15 44
-59 35 -25 -4 -35 -11 -35 -25 0 -25 138 -658 150 -686 8 -19 15 -22 42 -16
18 3 37 9 42 14 6 5 0 51 -14 116 -12 60 -25 119 -28 131 l-5 24 41 -21 c61
-31 110 -35 180 -16 72 21 141 75 175 139 31 58 30 170 -2 243 -52 119 -182
184 -306 154z m132 -102 c103 -50 135 -210 60 -296 -40 -45 -82 -63 -150 -63
-188 0 -245 283 -73 361 54 24 110 24 163 -2z"/>
<path d="M4015 8372 c-65 -31 -128 -93 -151 -149 -8 -19 -15 -58 -15 -88 -2
-112 53 -206 152 -260 135 -73 315 -7 385 140 61 128 -6 305 -139 366 -66 29
-158 26 -232 -9z m173 -67 c76 -33 123 -104 124 -189 1 -87 -50 -154 -135
-177 -87 -23 -168 16 -211 102 -28 57 -32 93 -16 149 18 64 106 128 178 130
12 0 39 -7 60 -15z"/>
<path d="M7147 8328 c-300 -404 -387 -531 -377 -543 23 -28 277 -205 326 -227
73 -33 219 -33 287 1 64 32 140 110 174 180 24 49 28 68 28 146 0 83 -2 95
-34 153 -19 35 -58 84 -86 110 -55 50 -253 198 -278 208 -9 3 -24 -7 -40 -28z
m142 -145 c153 -109 204 -184 203 -296 -2 -141 -126 -267 -262 -267 -70 0
-134 28 -239 105 -56 42 -101 79 -99 84 11 30 306 421 317 421 7 0 43 -21 80
-47z"/>
<path d="M3447 8297 l-27 -22 199 -300 c110 -165 205 -306 211 -313 9 -10 18
-9 43 7 18 11 32 27 32 35 0 24 -399 615 -415 616 -8 0 -27 -10 -43 -23z"/>
<path d="M6352 8060 c-31 -29 -29 -73 5 -100 48 -38 103 -8 103 56 0 58 -65
84 -108 44z"/>
<path d="M3265 7876 c-103 -48 -175 -170 -161 -274 17 -128 150 -252 271 -252
125 0 264 109 297 233 14 54 6 67 -44 67 -24 0 -29 -5 -39 -44 -22 -87 -116
-165 -200 -166 -37 0 -103 22 -113 38 -3 5 66 74 154 153 88 79 160 148 160
155 0 18 -68 74 -114 95 -59 27 -148 25 -211 -5z m173 -76 c24 -11 42 -23 40
-28 -4 -10 -246 -232 -253 -232 -2 0 -12 14 -21 32 -40 77 4 190 90 229 52 24
90 23 144 -1z"/>
<path d="M7680 7621 c-13 -31 -7 -51 14 -51 25 0 106 -60 136 -101 40 -55 41
-114 4 -158 -14 -17 -31 -31 -37 -30 -7 0 -39 33 -72 71 -94 111 -126 133
-193 133 -114 0 -178 -95 -137 -202 31 -80 95 -137 189 -167 18 -6 18 -7 1
-26 -17 -18 -17 -21 -1 -45 10 -14 24 -29 32 -32 15 -6 211 154 281 230 54 58
71 112 54 169 -25 81 -107 175 -190 218 -54 27 -66 25 -81 -9z m-75 -237 c23
-16 135 -145 135 -156 0 -15 -76 -58 -102 -58 -112 0 -214 145 -145 207 38 35
68 37 112 7z"/>
<path d="M2911 7544 c-29 -42 -35 -27 100 -260 55 -96 99 -178 97 -183 -2 -4
-102 16 -223 45 l-220 52 -28 -26 c-15 -15 -26 -33 -25 -41 2 -10 56 -26 173
-53 94 -21 217 -50 275 -63 l105 -24 32 35 c21 24 29 41 25 53 -8 18 -258 456
-276 483 -10 14 -14 12 -35 -18z"/>
<path d="M8072 7204 l-22 -15 20 -39 20 -39 -147 -88 c-101 -60 -155 -99 -170
-122 -43 -64 -24 -159 46 -226 25 -23 35 -27 48 -19 37 23 38 41 5 78 -39 45
-43 92 -9 124 28 26 256 162 273 162 6 0 27 -26 45 -57 19 -31 39 -58 45 -60
6 -2 22 5 35 16 19 16 22 23 13 38 -6 10 -23 39 -38 65 l-27 47 45 26 c50 29
56 47 26 85 l-19 25 -46 -23 c-25 -12 -49 -22 -53 -22 -4 0 -16 14 -25 30 -20
34 -33 37 -65 14z"/>
<path d="M2565 6937 c-92 -45 -147 -129 -153 -235 -5 -80 15 -137 69 -191 58
-58 120 -85 204 -89 62 -3 77 0 125 25 99 52 165 168 163 287 -1 70 -15 87
-58 75 -30 -8 -30 -9 -30 -81 0 -62 -4 -80 -28 -120 -35 -61 -96 -98 -160 -98
-25 0 -48 3 -50 8 -3 4 35 92 84 195 49 103 89 192 89 197 0 20 -68 43 -135
47 -59 3 -78 0 -120 -20z m155 -77 c0 -23 -144 -310 -154 -307 -5 2 -24 20
-40 41 -27 33 -31 46 -31 100 0 110 64 175 173 176 29 0 52 -4 52 -10z"/>
<path d="M8283 6732 l-20 -28 48 -52 c63 -68 88 -145 67 -200 -13 -35 -71 -86
-91 -79 -5 1 -27 47 -47 100 -57 147 -104 197 -185 197 -131 0 -189 -133 -119
-274 20 -41 42 -69 72 -90 l43 -31 -25 -8 c-15 -5 -26 -15 -26 -22 0 -27 20
-65 33 -65 16 0 297 105 338 126 35 17 87 78 95 110 12 49 -1 139 -30 199 -28
56 -103 145 -122 145 -6 0 -19 -13 -31 -28z m-160 -180 c23 -24 87 -173 87
-202 0 -15 -69 -32 -104 -26 -33 6 -84 52 -106 95 -6 13 -12 44 -13 69 0 37 5
49 27 69 37 31 76 30 109 -5z"/>
<path d="M2280 6386 c-93 -25 -182 -104 -227 -202 -28 -61 -98 -383 -86 -395
13 -12 681 -145 689 -137 3 4 22 83 41 175 27 134 33 183 29 241 -11 164 -119
286 -284 321 -66 14 -104 13 -162 -3z m212 -118 c87 -37 148 -136 148 -239 0
-46 -38 -251 -49 -262 -6 -6 -464 81 -517 98 -15 5 29 224 56 280 35 72 100
127 175 146 45 12 131 1 187 -23z"/>
<path d="M8577 5876 c-83 -31 -115 -83 -145 -246 -24 -125 -33 -151 -63 -179
-30 -28 -88 -28 -118 0 -38 36 -54 87 -54 174 0 76 5 95 48 197 5 12 -2 21
-25 33 -39 20 -50 13 -81 -58 -20 -45 -24 -68 -24 -167 0 -104 3 -121 27 -172
59 -127 195 -166 288 -82 46 42 64 85 89 219 24 124 33 147 67 174 40 31 80
27 119 -12 57 -57 69 -186 27 -290 -17 -45 -9 -58 39 -60 31 -2 34 0 50 53 22
69 24 190 4 257 -38 126 -146 196 -248 159z"/>
<path d="M2319 5271 c-112 -44 -171 -129 -170 -246 1 -159 110 -269 266 -269
169 0 277 109 277 280 -1 80 -31 165 -74 211 -27 29 -39 29 -68 -2 l-24 -25
27 -28 c77 -80 78 -210 2 -288 -40 -42 -85 -59 -85 -31 0 6 -11 100 -25 207
-14 107 -25 198 -25 203 0 13 -54 7 -101 -12z m45 -113 c12 -72 36 -260 36
-283 0 -54 -99 -17 -147 54 -28 42 -31 126 -7 178 16 33 76 83 101 83 7 0 15
-15 17 -32z"/>
<path d="M8305 5261 c-54 -14 -112 -50 -147 -91 -70 -81 -89 -215 -43 -307 38
-75 50 -82 82 -50 l27 26 -29 56 c-24 47 -27 63 -22 107 15 125 122 193 249
158 41 -12 92 -50 110 -83 39 -74 26 -170 -32 -226 -37 -36 -38 -38 -24 -69
18 -43 38 -40 89 11 102 102 99 293 -7 394 -61 59 -179 93 -253 74z"/>
<path d="M8029 4693 c-25 -66 -32 -62 191 -125 335 -95 316 -93 326 -27 l6 34
-189 52 c-103 29 -219 61 -256 72 l-68 20 -10 -26z"/>
<path d="M2248 4618 c-16 -5 -28 -15 -28 -22 0 -26 62 -108 97 -128 l37 -22
-35 -14 c-19 -8 -35 -15 -36 -16 -1 -1 3 -19 9 -39 13 -43 21 -44 104 -18 32
11 138 43 234 72 96 28 179 55 183 59 8 7 -11 90 -21 90 -2 0 -63 -18 -135
-40 -160 -50 -195 -55 -240 -41 -40 14 -93 68 -103 106 -7 27 -22 30 -66 13z"/>
<path d="M8680 4537 c-19 -9 -26 -22 -28 -48 -4 -46 19 -71 61 -67 61 6 76 91
22 116 -31 14 -25 14 -55 -1z"/>
<path d="M8012 4424 c-102 -51 -167 -160 -167 -281 0 -82 9 -98 53 -88 l30 6
3 84 c4 73 8 88 34 127 18 25 49 52 75 66 44 22 114 30 124 13 3 -5 -33 -94
-79 -199 -47 -104 -85 -194 -85 -200 0 -17 90 -42 150 -42 147 0 270 139 257
291 -3 31 -12 70 -21 87 -71 138 -244 201 -374 136z m268 -134 c48 -51 57
-140 22 -207 -18 -33 -70 -72 -112 -83 -40 -11 -90 -5 -90 11 0 18 135 309
143 309 5 0 21 -13 37 -30z"/>
<path d="M2671 4272 c-198 -105 -221 -129 -221 -226 0 -40 8 -77 21 -106 29
-64 92 -144 134 -170 l35 -22 20 24 c11 12 19 27 20 31 0 5 -22 29 -49 53 -59
53 -91 114 -91 173 0 37 5 49 36 77 19 19 40 34 45 34 5 0 23 -28 40 -62 84
-166 149 -227 229 -213 46 8 93 43 115 86 44 84 -19 239 -116 287 l-42 21 26
12 c15 7 27 16 27 21 0 22 -32 68 -48 68 -9 -1 -91 -40 -181 -88z m162 -76
c92 -38 137 -179 71 -223 -34 -22 -71 -19 -101 8 -24 23 -103 167 -103 188 0
14 50 40 78 41 12 0 37 -6 55 -14z"/>
<path d="M7710 3950 c-12 -16 -18 -34 -15 -40 3 -6 55 -46 115 -90 125 -93
166 -136 175 -183 15 -77 -43 -177 -114 -198 -57 -17 -91 -1 -237 107 -71 51
-134 94 -141 94 -6 0 -22 -14 -34 -31 -19 -28 -20 -33 -8 -43 118 -88 272
-197 299 -212 43 -22 124 -23 166 -1 41 21 102 90 125 141 10 22 19 62 19 89
0 51 4 55 31 31 23 -21 39 -14 62 25 l18 30 -98 72 c-54 40 -148 110 -210 156
-61 46 -116 83 -122 83 -5 0 -19 -13 -31 -30z"/>
<path d="M2905 3700 c-179 -67 -259 -102 -257 -112 5 -19 33 -48 47 -48 7 0
84 27 171 61 212 81 244 92 250 86 3 -2 -43 -91 -101 -196 -58 -105 -105 -195
-105 -199 0 -4 11 -20 24 -36 l23 -30 59 23 c137 53 358 131 365 129 5 -2 -39
-88 -96 -191 -58 -104 -105 -194 -105 -200 1 -21 37 -60 51 -55 15 6 269 470
269 491 0 7 -13 26 -29 41 l-28 27 -197 -72 c-108 -39 -200 -69 -202 -66 -3 3
37 87 90 187 53 99 96 185 96 190 0 11 -50 70 -58 70 -4 -1 -124 -45 -267
-100z"/>
<path d="M7248 3400 c-39 -21 -93 -80 -101 -111 -3 -11 1 -26 10 -34 23 -24
51 -18 68 14 18 37 52 61 83 61 26 0 105 -71 205 -183 l60 -68 -53 -54 c-53
-53 -53 -54 -36 -79 9 -14 22 -26 29 -26 6 0 32 20 57 45 25 24 49 44 55 45 5
0 26 -16 46 -36 39 -38 54 -38 92 3 16 19 15 21 -18 60 -19 23 -35 45 -35 50
0 5 11 19 25 31 31 27 31 33 0 62 l-25 24 -28 -27 c-16 -15 -32 -27 -38 -26
-5 0 -56 52 -114 115 -141 154 -195 180 -282 134z"/>
<path d="M3606 3268 c-10 -39 -7 -46 23 -53 41 -9 81 -51 81 -85 0 -27 -26
-68 -148 -232 -24 -32 -47 -58 -53 -58 -5 0 -35 19 -65 42 l-56 42 -19 -25
c-10 -13 -19 -29 -19 -36 0 -6 25 -29 55 -50 30 -21 55 -41 55 -46 0 -4 -14
-26 -31 -50 l-30 -42 30 -27 c17 -16 35 -28 41 -28 5 0 21 18 37 40 15 22 32
40 37 40 5 0 23 -9 41 -20 l32 -20 24 26 24 26 -32 29 c-18 16 -33 33 -33 38
0 5 43 68 96 140 100 137 118 175 108 227 -17 90 -179 190 -198 122z"/>
<path d="M7005 3205 l-29 -24 29 -40 c17 -22 88 -119 159 -216 71 -96 132
-175 135 -175 4 0 22 12 40 28 l33 27 -157 213 c-86 116 -162 212 -168 212 -7
-1 -25 -12 -42 -25z"/>
<path d="M6815 3066 c-111 -36 -194 -99 -227 -174 -32 -72 1 -149 77 -177 43
-17 45 -17 148 14 155 46 197 41 197 -24 0 -57 -85 -119 -182 -133 -52 -7 -53
-8 -56 -45 -4 -46 12 -54 79 -39 117 27 226 110 249 189 11 36 11 49 -4 88
-36 92 -108 110 -253 61 -92 -31 -135 -35 -158 -16 -21 17 -19 62 4 92 28 35
112 77 167 84 95 11 95 11 92 52 -3 36 -4 37 -48 39 -25 1 -63 -4 -85 -11z"/>
<path d="M3945 2837 c-59 -105 -110 -196 -115 -201 -4 -4 -36 8 -71 29 l-63
37 -18 -24 c-9 -13 -18 -28 -18 -35 0 -7 29 -28 65 -48 36 -20 65 -38 65 -40
0 -2 -10 -20 -21 -40 -39 -66 -89 -73 -147 -21 l-37 34 -29 -23 c-28 -22 -28
-23 -11 -49 26 -39 136 -90 177 -82 51 9 96 41 126 90 l28 44 35 -19 c38 -19
50 -16 68 19 15 27 10 36 -29 52 -16 7 -30 18 -30 24 0 6 47 96 105 200 58
104 105 193 105 197 0 5 -18 18 -39 29 l-39 20 -107 -193z"/>
<path d="M4309 2847 c-132 -49 -211 -171 -195 -301 17 -146 161 -257 315 -243
220 20 328 292 179 453 -76 82 -212 124 -299 91z m167 -96 c97 -44 130 -152
80 -256 -32 -65 -72 -96 -131 -103 -65 -7 -111 5 -151 40 -46 41 -64 77 -64
133 0 150 136 245 266 186z"/>
<path d="M6250 2813 c-71 -37 -81 -55 -51 -87 l23 -24 35 24 c44 29 93 31 118
4 17 -18 129 -309 122 -316 -2 -2 -32 -14 -68 -28 -58 -22 -64 -27 -62 -52 4
-45 16 -48 87 -24 36 12 69 19 74 16 5 -3 15 -23 22 -46 17 -51 22 -54 65 -39
39 15 42 26 20 88 -16 46 -20 41 53 66 16 6 15 36 -1 59 -12 17 -18 17 -51 6
-21 -6 -40 -10 -42 -7 -3 3 -30 71 -60 152 -30 81 -64 161 -75 176 -46 64
-122 76 -209 32z"/>
<path d="M5810 2712 c-74 -24 -62 -132 15 -132 39 0 65 28 65 71 0 38 -45 72
-80 61z"/>
<path d="M4865 2694 c-75 -27 -125 -97 -125 -174 0 -80 46 -131 165 -185 44
-20 102 -46 128 -58 96 -42 122 -109 68 -169 -29 -33 -30 -33 -123 -33 -95 0
-125 9 -200 59 -27 17 -27 17 -42 -13 -24 -46 -20 -56 32 -84 94 -51 214 -69
306 -46 116 29 186 158 140 255 -25 53 -76 88 -201 140 -63 26 -128 60 -144
75 -54 51 -30 134 48 160 74 24 219 -10 295 -71 42 -34 51 -33 73 10 14 27 14
29 -16 55 -98 82 -292 120 -404 79z"/>
<path d="M7390 2680 c-28 -28 -25 -64 6 -89 15 -12 33 -21 41 -21 21 0 63 46
63 70 0 28 -35 60 -65 60 -14 0 -34 -9 -45 -20z"/>
</g>
</svg>
